<svg width="56" height="56" viewBox="0 0 56 56" fill="none" xmlns="http://www.w3.org/2000/svg">
<g clip-path="url(#clip0_421_29)">
<path d="M29.8423 1.01965C22.8998 1.46665 16.8234 4.10676 12.1299 8.75838C6.80774 14.0107 4 20.6878 4 28.0354C4 34.6845 6.1512 40.5934 10.4536 45.692C13.0239 48.7651 15.7618 50.1201 19.3657 50.1201C21.1118 50.1201 22.4389 49.8547 23.8637 49.2261C26.392 48.1086 28.6969 45.6361 29.6468 43.0239C30.7364 40.0626 33.8235 39.0149 36.1842 40.8169C36.729 41.222 36.8268 41.2639 36.8268 41.0543C36.8268 40.5515 35.9607 39.0708 35.2343 38.3304C33.8933 36.9754 32.4685 36.3608 30.2335 36.1932C28.8366 36.0814 28.3337 35.844 27.7889 35.0338C27.5654 34.6985 27.4676 34.3493 27.4676 33.8744C27.4676 33.148 27.6073 32.7708 28.0683 32.254C28.4175 31.8768 28.6271 31.8628 29.116 32.226C29.6188 32.6032 30.01 32.4775 29.9541 31.9606C29.9122 31.6393 29.8423 31.5974 29.3255 31.5555C27.9286 31.4577 26.6295 32.7848 26.6295 34.3214C26.6295 35.1455 26.9508 35.7881 27.747 36.5564C28.5991 37.3805 28.641 37.7577 27.9985 38.987C27.4397 40.0346 25.4841 42.0182 24.3666 42.6747C23.277 43.3173 21.7823 43.7922 20.2877 43.9878C18.1923 44.2532 15.9434 43.7364 13.9737 42.549C11.0263 40.761 8.33034 36.5005 7.24077 31.9187C6.90552 30.4799 6.87758 30.0888 6.87758 27.5465C6.87758 25.0041 6.90552 24.613 7.24077 23.1742C10.1044 11.1051 22.7741 4.52583 34.2146 9.17745C34.7594 9.41492 35.2762 9.59651 35.36 9.59651C35.5975 9.59651 34.2705 8.35329 33.1669 7.55706C32.5663 7.138 31.6024 6.5094 31.0018 6.16018C29.7027 5.41983 29.8284 5.32205 31.8399 5.46174C36.4217 5.78302 40.4726 7.44531 43.9229 10.4346C44.5655 10.9934 45.1243 11.4125 45.1662 11.3706C45.3198 11.2169 43.6994 9.07967 42.4422 7.7666C41.7298 7.01228 41.199 6.38368 41.2549 6.34177C41.4784 6.21606 44.2163 6.92847 45.6411 7.48722C47.9879 8.39519 49.6921 9.48476 51.955 11.4683C52.4719 11.9153 52.9328 12.2646 52.9747 12.2227C53.0865 12.1109 51.4102 10.0715 50.2369 8.91204C46.116 4.81917 40.7101 2.10922 35.0388 1.28505C33.5441 1.07552 31.0437 0.949803 29.8423 1.01965Z" fill="white"/>
<path d="M21.0336 13.8421C18.5331 15.9094 16.8988 18.368 15.9349 21.5529C15.5717 22.6983 15.5438 22.9916 15.5438 25.3105C15.5298 26.6934 15.5717 28.0344 15.6276 28.2719C15.7813 28.9284 15.5159 28.8306 15.2644 28.1322C14.7336 26.6794 14.5939 25.8134 14.5241 23.6342C14.4682 21.8881 14.5101 21.1757 14.6917 20.3515C14.8174 19.7788 14.9431 19.0804 14.9851 18.815L15.0689 18.3261L14.7755 18.6753C14.3565 19.1782 13.3088 21.2595 12.9735 22.2373C12.4567 23.7739 12.2472 25.1568 12.2472 27.0566C12.2472 29.6967 12.6802 31.5685 13.7977 33.8175C14.105 34.4182 14.3145 34.9629 14.2587 35.0048C14.1469 35.1166 13.1551 33.9991 12.5126 33.0213C12.2192 32.5743 11.8141 31.778 11.6046 31.2333C11.3951 30.7024 11.1716 30.3113 11.1297 30.3672C10.6826 30.8421 10.2217 33.6778 10.3614 35.0188C10.6407 37.8405 12.1913 40.746 14.119 42.0731C16.7172 43.8611 20.0418 43.5817 22.2488 41.3886C23.6038 40.0197 24.2185 38.3853 24.0788 36.4995C23.981 35.1306 23.8413 34.7674 22.7517 32.8536C20.6564 29.1798 19.8881 26.3861 19.9021 22.5167C19.9021 19.4715 20.4608 16.8174 21.6063 14.3868C21.8996 13.7443 22.0952 13.1995 22.0393 13.1576C21.9834 13.1296 21.5225 13.437 21.0336 13.8421Z" fill="white"/>
<path d="M52.1211 44.169C50.3192 45.4541 47.5114 46.6275 44.8853 47.2002C43.7119 47.4517 43.0134 47.5075 40.9461 47.5075C38.1244 47.4936 36.9091 47.298 34.3388 46.418C32.439 45.7754 31.8663 45.6916 30.9304 45.971C30.1481 46.1945 30.0643 46.2503 28.1506 47.7031C26.2508 49.1559 24.2254 50.0499 21.8926 50.455C20.0068 50.7902 18.4283 50.7064 15.9139 50.1756C15.1736 50.008 15.3831 50.2734 16.5984 51.0416C18.1489 52.0055 20.9427 53.3325 22.577 53.8773C25.3848 54.7993 29.5894 55.386 32.0758 55.2044C34.255 55.0507 35.0093 54.9669 35.0093 54.8551C35.0093 54.7853 34.6461 54.6316 34.2131 54.5059C33.2213 54.2265 30.5393 52.9274 30.5393 52.7319C30.5393 52.6481 30.665 52.6201 30.8606 52.676C33.78 53.5421 36.0989 53.8214 38.4317 53.5979C40.3035 53.4303 40.8762 53.3186 40.8762 53.1649C40.8762 53.0951 40.7086 53.0113 40.4991 52.9554C39.0603 52.6341 36.8253 51.8239 36.8253 51.6144C36.8253 51.5585 37.398 51.5026 38.0964 51.5026C43.4325 51.5026 48.7407 49.072 52.1491 45.0909C53.6298 43.3588 53.6158 43.0934 52.1211 44.169Z" fill="white"/>
</g>
<defs>
<clipPath id="clip0_421_29">
<rect width="56" height="56" fill="white"/>
</clipPath>
</defs>
</svg>
