<svg width="56" height="56" viewBox="0 0 56 56" fill="none" xmlns="http://www.w3.org/2000/svg">
<path d="M24.9621 3.08534C17.927 4.06255 12.1043 8.01391 8.83346 14.0472C8.50919 14.6278 8.25542 15.0244 8.25542 14.9394C8.25542 14.8544 8.57969 13.3674 8.96034 11.6254C9.3551 9.88337 9.63707 8.43879 9.62297 8.41046C9.59478 8.38214 9.20002 8.82118 8.74887 9.38768C4.94228 14.1746 3.01078 19.6272 2.71472 26.3544C2.68652 27.0484 2.63013 26.8501 2.05209 24.3292C1.71372 22.7996 1.38946 21.5392 1.33306 21.5392C1.07929 21.5392 0.853716 24.5133 0.867815 27.6291C0.867815 30.674 0.896012 31.1131 1.24847 32.7418C1.9393 35.9991 3.13767 38.8883 4.85769 41.4376C5.6331 42.5989 6.67639 43.916 6.53541 43.562C6.50721 43.477 6.23934 42.9105 5.94327 42.2873C5.15375 40.602 4.35014 38.0952 4.01178 36.1833C3.58882 33.8323 3.57472 29.9659 3.99768 27.6007C6.47901 13.7639 19.8444 4.82733 33.4776 7.88645C39.3708 9.21773 44.5167 12.6451 48.0977 17.6445C49.1974 19.1882 50.8187 22.4172 51.3968 24.2017C52.4965 27.6574 52.8489 32.0478 52.3273 35.7867C52.2568 36.2541 52.285 36.2116 52.5247 35.5318C52.8912 34.4271 53.2296 32.0478 53.2296 30.5607C53.2296 27.3741 52.1722 22.9554 50.7482 20.0804C50.5509 19.7122 50.4381 19.4148 50.4804 19.4148C50.5227 19.4148 51.4955 20.0804 52.6374 20.8877C53.7794 21.695 54.7381 22.3464 54.7522 22.3181C54.865 22.219 53.1309 19.0041 52.2427 17.6586C49.1974 13.0275 45.2921 9.9117 41.0203 8.7362L39.7655 8.38214H42.416C43.8682 8.36798 45.0525 8.32549 45.0525 8.25467C45.0525 8.11305 42.98 6.93756 41.6688 6.32857C35.9589 3.70849 28.7828 3.75098 22.3539 6.44187L21.1555 6.95172L21.6067 6.52684C22.2129 5.9745 24.4264 4.68571 26.3438 3.75098L27.9228 3.00036L26.6539 3.01452C25.9631 3.01452 25.2018 3.05701 24.9621 3.08534Z" fill="#F4F4F4"/>
<path d="M25.9196 8.38172C20.6749 8.89157 15.7405 11.1576 11.8916 14.854C7.71843 18.862 5.30759 23.9605 4.71546 30.0363C4.23611 34.979 5.77284 40.7857 8.70533 45.0769C9.17058 45.7567 9.57943 46.3232 9.60763 46.3232C9.63583 46.3232 9.43845 45.87 9.17058 45.3177C8.42336 43.8306 7.73253 41.6213 7.39417 39.6527C6.99941 37.3725 7.0699 33.5486 7.53515 31.5234C8.53615 27.2038 10.4112 23.7623 13.4001 20.7456C17.9116 16.2136 23.6074 14.0892 30.2055 14.4858C39.6515 15.0523 47.6735 22.0911 49.7319 31.6367C50.1549 33.5769 50.1972 38.2647 49.8165 40.0067C49.5204 41.2814 49.5204 41.3663 49.7037 41.0831C49.9716 40.6865 50.9585 37.415 51.2123 36.0979C51.607 34.0585 51.5647 29.2007 51.1418 27.2463C48.8719 16.766 40.6666 9.40142 30.1209 8.36756C28.4996 8.21177 27.6255 8.21177 25.9196 8.38172Z" fill="#F4F4F4"/>
<path d="M25.1864 18.791C25.1864 18.9467 25.2287 18.9892 25.271 18.8759C25.3132 18.7768 25.2991 18.6493 25.2569 18.6068C25.2146 18.5502 25.1723 18.6352 25.1864 18.791Z" fill="#F4F4F4"/>
<path d="M24.9621 19.4141C24.807 19.8956 23.9188 20.8162 23.2844 21.1419C22.8756 21.3544 22.3116 21.4677 21.4093 21.5243C19.7457 21.6376 19.4637 21.85 19.4496 23.068C19.4496 23.5212 19.4073 23.9461 19.365 24.0169C19.2522 24.2152 19.7175 25.5465 19.929 25.6173C20.0277 25.6456 20.0982 25.5465 20.0982 25.3624C20.0982 25.1216 20.1545 25.0791 20.3801 25.1499C20.5916 25.2207 20.6621 25.1782 20.6621 25.0083C20.6621 24.81 20.7467 24.7817 21.1273 24.8667C21.6631 24.98 22.5795 24.98 23.5523 24.8667C24.2572 24.7817 25.3146 25.0649 25.3146 25.3482C25.3146 25.5606 24.7366 26.2121 24.5392 26.2121C24.4405 26.2121 23.8765 26.467 23.2844 26.7786C22.509 27.1893 22.1142 27.331 21.8605 27.2601C21.6208 27.2035 21.508 27.2318 21.508 27.3593C21.4939 27.4867 21.3952 27.4301 21.226 27.2318C20.9723 26.9202 20.9582 26.9202 20.8172 27.1893C20.5775 27.6284 20.6339 27.8691 21.0568 28.3223C21.2683 28.5489 21.5503 28.8888 21.6772 29.0871C21.8041 29.2712 22.0437 29.4695 22.1988 29.512C22.4385 29.5686 22.4526 29.5403 22.3257 29.2571C22.1424 28.8464 22.2693 28.4498 22.5372 28.5631C22.65 28.6056 23.0024 28.4073 23.3267 28.1241C23.8202 27.7275 24.0457 27.6284 24.5392 27.6284C25.9631 27.6284 28.0074 28.6056 29.3891 29.9369L30.1504 30.6733L29.7415 29.9085C29.53 29.4978 29.093 28.8747 28.7969 28.5348L28.2471 27.9116H28.811C30.1927 27.9116 32.392 28.988 33.3366 30.121C33.7737 30.645 33.7737 30.6592 33.6327 30.2484C33.5481 30.0218 33.3366 29.6111 33.1815 29.3562L32.8855 28.8747L33.1956 29.073C33.6186 29.3279 34.7888 30.8149 35.2963 31.7355C36.0153 33.0526 36.3396 34.3131 36.3537 35.9135C36.3678 37.9954 35.7193 39.8507 34.5491 41.1395C34.2953 41.4227 34.112 41.6493 34.1543 41.6493C34.2671 41.6493 35.0848 41.0545 35.5078 40.6863C35.9871 40.2331 35.9871 40.3322 35.4796 41.3377C34.4927 43.3205 32.8714 44.9209 30.8835 45.8981C29.234 46.7195 28.233 46.9461 26.1887 46.9603C24.6238 46.9603 24.4828 46.9744 24.8916 47.1444C27.7113 48.2916 31.1514 47.98 33.9429 46.3088C35.0425 45.6573 36.5511 44.2127 37.3547 43.0231C37.6649 42.584 37.9327 42.2441 37.9609 42.2725C37.9891 42.3008 37.8622 42.7257 37.6649 43.2214C37.3406 44.0286 37.3265 44.0853 37.5803 43.7737C38.1019 43.1222 39.399 40.318 39.7655 39.0292C39.9629 38.3211 40.2026 37.3014 40.2872 36.7632C40.3718 36.2109 40.4987 35.7152 40.5691 35.6302C40.6819 35.5028 40.7665 36.4517 40.7101 37.4005C40.696 37.8537 40.7101 37.8679 40.8652 37.613C40.978 37.4147 41.0344 36.5791 41.0344 34.9929C41.0344 32.8968 40.9921 32.5145 40.6537 31.2823C40.2026 29.6536 39.695 28.5914 38.7786 27.3734C38.1724 26.5662 36.8612 25.3199 35.8885 24.6117L35.536 24.3568L35.8885 24.456C36.5652 24.6259 38.0878 25.504 38.8068 26.1413C39.2016 26.4954 39.7937 27.1752 40.118 27.6709C40.7947 28.6906 40.7383 28.2798 40.0052 26.8636C39.3849 25.6598 37.9891 24.2294 36.7344 23.4787C35.9026 22.9972 35.8603 22.9547 36.255 22.9547C37.4393 22.9547 40.3577 24.1869 42.4301 25.5606C42.9659 25.9289 43.4311 26.1838 43.4593 26.1555C43.4875 26.1271 42.8954 25.4615 42.1341 24.6967C40.0193 22.544 37.8481 21.2835 35.3245 20.7454C34.2812 20.5188 32.1383 20.4904 31.3064 20.6887C30.9963 20.7595 30.7284 20.7878 30.6861 20.7595C30.5874 20.6462 32.392 19.8814 33.2097 19.6973C33.9711 19.5132 33.9711 19.4991 33.5622 19.3858C33.3366 19.3149 32.6317 19.23 32.0114 19.1875C29.8402 19.0317 27.8946 19.6973 26.372 21.1278C25.6389 21.8217 25.3851 21.9775 24.8352 22.0483C23.9752 22.1758 23.2844 22.629 23.228 23.1247C23.1857 23.4646 23.1011 23.5071 22.3257 23.6487C21.6208 23.7762 21.4093 23.762 21.0568 23.5779C20.8172 23.4504 20.4788 23.3796 20.2955 23.4221C19.7739 23.5212 19.6329 22.7989 20.07 22.2466C20.2814 21.9775 20.5352 21.9067 21.5362 21.8217C22.946 21.6943 23.6369 21.3827 24.3841 20.5471C24.8775 19.9947 25.2441 19.3008 25.1172 19.1733C25.089 19.1308 25.0185 19.2441 24.9621 19.4141ZM25.7375 23.153C25.7375 23.5496 25.3146 23.8045 24.6379 23.8045H23.9752L24.6802 23.3796C25.4697 22.9122 25.7375 22.8556 25.7375 23.153Z" fill="#F4F4F4"/>
<path d="M39.4393 24.6686C40.3134 25.8583 40.7364 26.5664 41.3144 27.7986C43.1613 31.7358 43.1613 36.5369 41.3144 40.4741C40.4685 42.2727 39.82 43.2075 38.4243 44.6662C36.4787 46.7056 34.1947 48.0652 31.4314 48.8158C30.1907 49.1557 29.7819 49.1982 27.7094 49.2124C25.1576 49.2265 23.9592 48.9999 21.8867 48.1643C19.4618 47.1588 16.6562 44.8928 15.2463 42.7826C13.8224 40.6582 12.8496 38.024 12.6804 35.9137C12.6381 35.3614 12.5676 34.6957 12.5253 34.4267L12.4407 33.931L12.328 34.5683C12.2716 34.9223 12.2152 35.9987 12.2152 36.9476C12.1729 43.7031 16.2896 49.793 22.5635 52.2573C24.8756 53.1637 25.8625 53.3337 28.7668 53.3195C31.0648 53.3195 31.4314 53.277 32.7144 52.923C34.3216 52.4839 36.5633 51.4642 37.8744 50.5578C39.0305 49.7789 40.9338 47.9377 41.822 46.7481C46.1079 41.0406 46.0938 32.7696 41.7797 27.0621C40.962 25.9716 38.7485 23.7056 39.4393 24.6686Z" fill="#F4F4F4"/>
</svg>
