<svg width="227" height="199" viewBox="0 0 227 199" fill="none" xmlns="http://www.w3.org/2000/svg">
<path d="M109.497 0.000260763C82.1196 131.578 0.000525116 144.709 109.497 236.811C219 144.708 136.874 131.578 109.497 0V0.000260763ZM41.0601 78.8609C27.3709 118.33 0 144.853 0 184.329C0 223.798 54.7482 250 95.8143 250C13.6887 184.204 41.0596 144.643 41.0596 78.8609H41.0601ZM177.934 78.8609C177.934 144.65 205.311 184.211 123.186 250C164.245 250 219 223.798 219 184.329C219 144.853 191.622 118.33 177.934 78.8609Z" fill="#8ABCAF" fill-opacity="0.67"/>
<path d="M109.497 0.000260763C82.1196 131.578 0.000525116 144.709 109.497 236.811C219 144.708 136.874 131.578 109.497 0V0.000260763ZM41.0601 78.8609C27.3709 118.33 0 144.853 0 184.329C0 223.798 54.7482 250 95.8143 250C13.6887 184.204 41.0596 144.643 41.0596 78.8609H41.0601ZM177.934 78.8609C177.934 144.65 205.311 184.211 123.186 250C164.245 250 219 223.798 219 184.329C219 144.853 191.622 118.33 177.934 78.8609Z" fill="#8ABCAF" fill-opacity="0.67"/>
<path d="M117.497 2.41524C124.346 34.2452 134.376 59.0742 143.992 79.7699C147.101 86.461 150.162 92.711 153.057 98.6214C159.344 111.458 164.846 122.693 168.352 133.365C173.457 148.9 174.296 163.154 167.087 179.252C159.891 195.323 144.655 213.275 117.497 236.157C90.3411 213.275 75.1057 195.323 67.9096 179.252C60.7012 163.155 61.5402 148.9 66.6443 133.365C70.1506 122.693 75.6525 111.458 81.9392 98.6208C84.8334 92.7107 87.894 86.461 91.0027 79.7703C100.619 59.0745 110.648 34.2454 117.497 2.41524ZM48.5416 81.7963C48.3874 94.4875 47.2666 106.207 46.199 117.368C45.9838 119.619 45.7707 121.847 45.5682 124.055C44.2851 138.045 43.4248 151.262 45.144 164.49C48.5572 190.752 62.1224 216.957 102.382 249.489C82.266 249.194 59.074 242.709 40.7678 231.539C22.015 220.096 8.5 203.811 8.5 184.329C8.5 164.713 15.2975 148.3 23.8405 131.822C25.9551 127.744 28.1784 123.658 30.4311 119.519C36.839 107.745 43.4844 95.5342 48.5416 81.7963ZM194.23 231.539C175.923 242.709 152.731 249.194 132.618 249.489C172.878 216.96 186.441 190.757 189.853 164.495C191.571 151.267 190.71 138.05 189.426 124.059C189.224 121.852 189.011 119.626 188.796 117.377C187.728 106.213 186.606 94.4902 186.452 81.7949C191.51 95.5351 198.157 107.748 204.567 119.524C206.819 123.661 209.042 127.745 211.156 131.822C219.701 148.3 226.5 164.713 226.5 184.329C226.5 203.811 212.983 220.096 194.23 231.539Z" stroke="white"/>
</svg>
