<svg width="229" height="173" viewBox="0 0 229 173" fill="none" xmlns="http://www.w3.org/2000/svg">
<path d="M177.693 82.7717L178.313 83.662L178.588 82.6124C179.12 80.5733 179.942 78.5585 180.979 76.5847C190.984 85.9163 199.247 95.9563 205.486 106.168C203.424 105.987 201.226 105.609 198.887 105.034L197.393 104.666L198.386 105.842L214.648 125.113C220.355 141.144 220.643 156.754 214.487 169.905L198.004 182.586L197.097 183.284L198.226 183.475C200.075 183.789 201.841 184.191 203.523 184.682C192.466 194.693 176.376 200.102 157.7 200.768C155.485 200.847 153.234 200.86 150.951 200.805C150.995 200.689 151.038 200.574 151.078 200.46L151.279 199.903L150.696 199.799L125.528 195.289L124.014 195.018L125.079 196.127C125.63 196.701 126.145 197.29 126.627 197.892C116.85 195.839 106.799 192.708 96.7434 188.489L97.2082 188.479L95.9469 187.601L74.9615 172.993L74.4755 172.655L74.2234 173.19C73.8176 174.053 73.3583 175.12 72.8662 176.346C52.4454 164.047 35.8393 148.768 24.1916 132.686C25.0453 132.383 25.8546 132.051 26.611 131.695L27.1467 131.443L26.8084 130.957L12.1995 109.971L11.3203 108.709L11.2942 110C3.38855 90.9851 2.91986 72.3 11.5776 57.3043C16.3466 49.0442 23.4697 42.6224 32.3192 38.0753C32.4303 38.698 32.5478 39.3128 32.6714 39.9183L32.787 40.485L33.331 40.2887L57.3833 31.6098L58.6112 31.1667L57.4015 30.6761C57.3968 30.6742 57.3921 30.6723 57.3874 30.6704C60.3583 30.2935 63.4133 30.0489 66.5407 29.9373C74.2177 29.6633 82.3239 30.1917 90.6839 31.5297C90.4482 32.1145 90.2401 32.6584 90.0616 33.154L89.861 33.7111L90.4438 33.8156L117.274 38.6239L118.396 38.8249L118.286 38.6522C128.313 42.207 138.428 46.8465 148.361 52.5816C153.626 55.6213 158.65 58.859 163.414 62.2593L177.693 82.7717ZM199.508 182.691L213.466 171.952C213.207 172.439 212.94 172.922 212.663 173.402C210.405 177.312 207.62 180.811 204.373 183.894C202.821 183.417 201.199 183.016 199.508 182.691ZM149.928 200.677C149.916 200.71 149.903 200.742 149.89 200.775C142.882 200.544 135.585 199.687 128.12 198.198C127.707 197.632 127.266 197.077 126.798 196.532L149.928 200.677ZM25.645 131.036C24.9936 131.323 24.3046 131.591 23.5836 131.84C20.467 127.464 17.7177 123.032 15.3586 118.587C14.2196 116.441 13.1718 114.292 12.2178 112.146C12.2247 112.023 12.2312 111.9 12.2372 111.776L25.645 131.036ZM33.5378 39.151C33.438 38.6419 33.3427 38.1267 33.2519 37.6062C39.8406 34.3621 47.3491 32.1303 55.5287 30.9252C55.643 30.9822 55.7572 31.0379 55.8711 31.0923L33.5378 39.151ZM91.2077 32.9366C91.3546 32.5474 91.5176 32.1326 91.6957 31.6954C98.5811 32.8483 105.633 34.5478 112.754 36.798L91.2077 32.9366ZM165.88 64.0503C170.981 67.8229 175.769 71.7819 180.22 75.8813C179.268 77.6623 178.48 79.484 177.912 81.3346L165.88 64.0503ZM180.718 74.9805C175.623 70.3017 170.093 65.8076 164.163 61.5655C165.661 60.2473 168.05 58.9546 170.984 57.7841C174.124 56.5316 177.842 55.4373 181.654 54.6054C185.466 53.7736 189.362 53.2064 192.857 53.0038C195.88 52.8285 198.574 52.9278 200.648 53.3493C196.738 56.644 191.932 60.8295 187.674 65.5751C185.041 68.5084 182.605 71.6694 180.718 74.9805ZM109.685 19.2331C110.6 24.9782 112.652 31.1177 115.96 36.7914C107.89 34.0793 99.8873 32.0662 92.0907 30.7477C93.6433 27.1004 96.0832 22.2075 98.9833 17.4991C100.839 14.4858 102.878 11.5578 104.986 9.08512C106.71 7.06208 108.468 5.36048 110.195 4.16397C108.982 8.28049 108.786 13.5821 109.685 19.2331ZM44.4113 22.0274C47.4497 25.3943 50.8075 28.238 54.0743 30.1389C46.423 31.3793 39.3531 33.5265 33.0797 36.5771C32.3363 31.9428 31.9666 26.9476 32.1709 22.2002C32.4036 16.7918 33.3793 11.749 35.3589 7.92775C37.4141 12.9569 40.6877 17.9013 44.4113 22.0274ZM1.42226 132.874C7.60361 129.538 11.1359 123.305 12.0568 114.205C12.8114 115.823 13.618 117.44 14.4753 119.056C16.8095 123.454 19.5209 127.837 22.5876 132.164C16.5191 134.032 8.50408 134.557 1.42226 132.874ZM69.2688 189.984C70.5765 185.498 72.0622 181.167 73.3642 177.809C74.0321 178.206 74.704 178.599 75.3799 178.99C81.1085 182.297 86.8988 185.243 92.6999 187.829C87.5596 188.803 82.3403 191.878 77.7531 195.449C72.8486 199.267 68.6011 203.703 65.8508 206.915C66.0694 202.373 67.4965 196.065 69.2688 189.984ZM132.222 222.863C134.295 216.138 133.899 207.001 128.933 199.376C135.963 200.728 142.843 201.521 149.474 201.761C148.062 204.94 145.632 208.919 142.686 212.707C139.541 216.748 135.845 220.523 132.222 222.863ZM222.824 197.161C218.656 191.055 212.881 186.745 205.456 184.242C208.599 181.191 211.311 177.744 213.529 173.902C214.006 173.075 214.456 172.238 214.879 171.391C219.048 178.411 222.491 188.634 222.824 197.161ZM209.766 111.65C208.991 110.19 208.175 108.732 207.318 107.277C214.039 107.484 219.368 105.52 223.296 101.358C223.053 109.865 219.567 118.822 215.361 124.143C213.845 119.986 211.974 115.81 209.766 111.65ZM138.223 173.534L136.906 174.33L138.439 174.46L163.918 176.619L164.508 176.669L164.458 176.079C164.429 175.73 164.393 175.354 164.351 174.956C180.179 174.383 192.683 169.076 198.649 158.742C205.469 146.931 202.33 131.006 192.011 114.906C182.524 100.104 166.905 85.042 147.059 72.6554L148.109 72.525L147.038 71.7793L126.052 57.1715L125.577 56.8411L125.319 57.3586C124.826 58.3442 124.345 59.3634 123.88 60.4085C107.355 53.178 91.1448 49.189 77.053 48.5349C61.8362 47.8286 48.9933 51.013 40.9512 58.3082C39.2283 56.9529 37.4784 55.6923 35.7544 54.5526L35.272 54.2336L35.0261 54.7571L24.1562 77.9015L23.6013 79.083L24.8035 78.5746C26.8932 77.6909 29.4273 77.0769 32.2177 76.7405C31.5829 86.3929 35.2848 97.4249 42.4091 108.54C47.1539 115.942 53.4322 123.41 61.0059 130.576C60.8976 130.667 60.792 130.756 60.6893 130.843L60.2372 131.225L60.6897 131.607L80.2316 148.093L81.4077 149.085L81.0395 147.591C80.9504 147.229 80.8699 146.863 80.7978 146.492C84.6144 149.113 88.6129 151.638 92.7774 154.042C108.639 163.2 124.806 169.399 139.681 172.558C139.206 172.908 138.72 173.234 138.223 173.534ZM35.6844 55.7078C37.1909 56.7208 38.7129 57.8247 40.2145 59.0011C38.4788 60.6943 36.9883 62.5944 35.7703 64.704C33.8252 68.073 32.6903 71.7767 32.3011 75.7237C29.8528 76.0061 27.576 76.4972 25.5913 77.1982L35.6844 55.7078ZM79.7603 146.387L74.6105 142.042C76.2495 143.277 77.9277 144.495 79.6438 145.693C79.6796 145.926 79.7184 146.157 79.7603 146.387ZM157.413 173.913C152.499 173.684 147.318 173.046 141.951 172C145.566 168.774 148.413 164.302 150.408 159.694C152.691 154.423 153.89 148.9 153.822 144.742C155.059 146.236 156.186 148.188 157.197 150.423C158.453 153.198 159.518 156.377 160.397 159.591C161.844 164.884 162.78 170.242 163.235 173.988C161.343 174.03 159.401 174.005 157.413 173.913ZM81.2442 128.954C79.7223 133.891 78.9536 139.355 79.4714 144.35C73.2877 139.983 67.6109 135.369 62.5112 130.617C65.3822 128.217 69.6621 124.763 74.2913 121.768C76.9474 120.05 79.7084 118.49 82.3756 117.368C84.5236 116.464 86.5904 115.853 88.48 115.662C85.5598 118.594 82.9282 123.491 81.2442 128.954ZM40.1044 75.5044C37.7782 75.3852 35.49 75.4232 33.3193 75.6192C33.7148 71.8743 34.8051 68.3757 36.6363 65.204C37.8256 63.1441 39.2906 61.2859 41.0058 59.6295C43.7087 61.8042 46.3238 64.2063 48.6374 66.7279C52.2971 70.7166 55.1725 74.9718 56.4742 79.0727C51.4654 76.9699 45.6548 75.7888 40.1044 75.5044ZM124.393 61.728C129.965 64.205 135.572 67.0532 141.143 70.2698C142.205 70.8827 143.255 71.5034 144.295 72.1315C140.426 73.0498 136.126 75.0229 132.028 77.6777C127.363 80.6992 122.921 84.6274 119.635 88.9529C118.712 84.7506 119.074 79.6278 120.249 74.3437C121.198 70.0763 122.671 65.732 124.393 61.728Z" stroke="#FFF5F5"/>
<path d="M153.611 49.1486C97.8444 16.9513 36.2978 19.148 16.1446 54.0543C-4.00857 88.9606 24.8624 143.359 80.6299 175.557C136.397 207.754 197.942 205.558 218.096 170.652C238.25 135.744 209.378 81.3459 153.611 49.1486ZM203.216 155.492C189.86 178.626 142.766 176.439 98.0274 150.609C53.2891 124.779 27.8475 85.0869 41.2033 61.954C54.5591 38.8212 101.655 41.0068 146.393 66.8367C191.131 92.6667 216.573 132.359 203.216 155.492ZM183.104 79.486C186.184 67.7012 198.661 56.8628 206.729 50.0946C197.743 47.5679 174.642 52.5454 168.496 58.5011L183.104 79.486ZM62.2136 28.1395C54.1197 24.8572 44.4169 14.3573 40.4367 3.75683C35.6711 11.7844 35.9198 25.8337 38.1613 36.8184L62.2136 28.1395ZM122.362 35.1317C114.668 23.0378 112.986 8.33021 116.11 0C107.433 4.86942 98.1734 22.9878 95.532 30.3234L122.362 35.1317ZM143.482 170.962C153.568 164.862 159.054 148.68 158.247 140.376C164.926 146.895 168.349 165.83 168.96 173.12L143.482 170.962ZM203.768 102.519C215.214 105.338 223.505 103.465 228.807 97.0215C228.921 106.353 224.979 116.473 220.257 122.06L203.768 102.519ZM16.7891 107.257C16.5511 119.043 12.5938 126.567 5 130.022C13.9832 132.548 24.7797 131.358 31.3981 128.243L16.7891 107.257ZM85.554 144.711C82.7334 133.266 88.395 117.401 94.8366 112.1C85.5054 111.985 71.5976 123.502 66.0121 128.225L85.554 144.711ZM130.44 192.781C138.605 201.286 139.234 213.188 136.306 221C144.445 216.435 153.131 204.172 155.608 197.291L130.44 192.781ZM100.661 185.011C88.8747 185.259 75.6244 198.88 70.3233 205.321C70.2086 195.99 76.5618 177.021 79.6758 170.403L100.661 185.011ZM203.309 179.982C214.756 181.924 223.046 187.243 228.348 195.891C228.464 186.607 224.52 174.848 219.798 167.297L203.309 179.982ZM29.6088 75.1141C37.6534 71.7121 51.9383 72.2745 62.247 76.9558C59.9419 67.9114 49.8317 58.1531 40.4787 51.9696L29.6088 75.1141ZM151.752 69.1897C143.085 70.2662 130.994 77.8956 124.408 87.104C121.881 78.1191 125.758 64.6127 130.766 54.5819L151.752 69.1897Z" fill="#5D82BA"/>
</svg>
