<svg width="56" height="56" viewBox="0 0 56 56" fill="none" xmlns="http://www.w3.org/2000/svg">
<path d="M25.3003 8.11681C23.8571 11.4798 22.7052 14.2471 22.7185 14.2603C22.7317 14.2868 23.3407 13.916 24.069 13.4394C24.7972 12.976 25.4327 12.592 25.4989 12.592C25.5519 12.592 25.5916 20.801 25.5916 30.8239V49.069L20.8251 44.3025L16.0586 39.536V41.191L16.0718 42.8461L22.0167 48.8439L27.9748 54.855L33.933 48.8439L39.8778 42.8461L39.8911 41.191V39.536L35.1246 44.3025L30.3581 49.069V30.8239C30.3581 20.801 30.3978 12.592 30.464 12.592C30.517 12.592 31.1525 12.976 31.8807 13.4394C32.6089 13.916 33.218 14.2868 33.2312 14.2603C33.2842 14.2073 28.041 1.9998 27.9748 1.9998C27.9351 1.9998 26.7303 4.75378 25.3003 8.11681Z" fill="white"/>
<path d="M5.83959 17.1732C10.5002 22.2575 13.9162 28.3083 15.6109 34.4385L16.0611 36.0935L18.921 38.9402C22.1648 42.1841 21.8338 42.1443 21.4102 39.2712C20.5628 33.4455 17.3984 26.2428 13.85 22.0721C13.4263 21.5822 12.9364 20.9996 12.7643 20.7878L12.4465 20.4038H13.7573H15.0681L14.2736 19.9404C13.0688 19.2519 9.05698 17.4645 7.1901 16.7892C4.51556 15.8227 4.58177 15.8094 5.83959 17.1732Z" fill="white"/>
<path d="M49.2287 16.6171C46.8984 17.4512 45.5214 18.047 43.0719 19.2519L40.8873 20.3376L42.1981 20.4038L43.4956 20.47L42.7277 21.3306C38.4908 26.0839 34.9689 34.1604 34.3598 40.5687L34.2539 41.7339L37.0741 38.9137L39.8943 36.0935L40.3444 34.4385C41.9862 28.4406 45.3095 22.509 49.8774 17.4512C50.5792 16.67 51.0823 16.0345 50.9896 16.0477C50.8969 16.0477 50.1025 16.2993 49.2287 16.6171Z" fill="white"/>
</svg>
