<svg width="56" height="56" viewBox="0 0 56 56" fill="none" xmlns="http://www.w3.org/2000/svg">
<g clip-path="url(#clip0_421_95)">
<path d="M6.96 14.6948C5.582 14.9548 4.477 15.3448 3.151 16.0338C2.02 16.6318 1.5 16.9958 1.5 17.2298C1.5 17.5938 2.02 17.8408 2.891 17.9188C4.893 18.0878 7.025 19.1148 8.598 20.6748C12.641 24.6918 12.368 31.2048 8 34.9488C6.596 36.1578 4.568 37.0418 2.813 37.1978C1.929 37.2888 1.5 37.4708 1.5 37.7958C1.5 38.2638 3.606 39.4338 5.53 40.0448C7.571 40.6818 10.652 40.7078 12.797 40.1098C15.722 39.2908 18.452 37.3018 20.116 34.7668L20.792 33.7528L21.455 34.3768C22.82 35.6768 24.276 36.4178 26.2 36.8078C28.813 37.3278 31.933 36.5088 33.896 34.7928L34.507 34.2468L34.923 34.8708C36.678 37.4448 39.408 39.3818 42.424 40.1878C44.413 40.7078 47.546 40.6428 49.47 40.0448C51.394 39.4338 53.5 38.2638 53.5 37.7958C53.5 37.4838 53.071 37.2888 52.213 37.1978C49.093 36.9118 46.155 34.9098 44.673 32.0498C42.671 28.2278 43.36 23.7168 46.415 20.6748C47.962 19.1148 50.094 18.0878 52.109 17.9188C52.98 17.8408 53.5 17.5938 53.5 17.2298C53.5 16.9958 52.98 16.6318 51.849 16.0338C49.6 14.8638 47.637 14.4218 45.115 14.5388C41.917 14.6818 39.109 15.8648 36.782 18.0358C36.054 18.7248 34.988 19.9988 34.663 20.5838C34.572 20.7398 34.416 20.6748 33.792 20.1938C32.7 19.3618 31.998 18.9848 30.815 18.5818C29.463 18.1268 27.383 18.0228 25.94 18.3218C24.64 18.5948 22.833 19.5048 21.689 20.4668L20.753 21.2598L20.181 20.3758C18.452 17.7108 15.631 15.7088 12.433 14.8768C11.107 14.5258 8.299 14.4348 6.96 14.6948ZM29.645 19.3748C30.152 19.4788 31.049 19.8038 31.66 20.1028C32.544 20.5318 32.973 20.8698 33.805 21.7018C35.521 23.4308 36.21 25.0948 36.21 27.4608C36.21 29.0988 35.989 30.0608 35.287 31.4128C34.286 33.3368 32.505 34.8448 30.451 35.5078C29.112 35.9368 27.123 36.0018 25.823 35.6378C22.092 34.6238 19.57 31.3348 19.57 27.5128C19.57 25.2898 20.415 23.2618 22.04 21.6498C24.068 19.6218 26.837 18.7898 29.645 19.3748Z" fill="white"/>
</g>
<defs>
<clipPath id="clip0_421_95">
<rect width="56" height="56" fill="white"/>
</clipPath>
</defs>
</svg>
