<svg width="56" height="56" viewBox="0 0 56 56" fill="none" xmlns="http://www.w3.org/2000/svg">
<path d="M40.3576 5.02922C40.0919 5.05718 39.2391 5.15505 38.4701 5.23894C27.7743 6.35745 18.6165 10.7616 14.1844 16.9274C11.7097 20.3528 10.5633 23.988 10.5633 28.3641C10.5633 33.1737 12.241 37.3122 15.5546 40.7377C17.1065 42.3315 18.7564 43.5479 20.504 44.4008C21.1891 44.7363 21.7623 45.03 21.7623 45.0719C21.7623 45.1977 19.9588 46.2323 18.9801 46.6658C15.1631 48.3575 11.0666 49.0985 4.91479 49.2244L1 49.3083L1.90879 49.5739C5.30626 50.5526 8.92744 50.986 13.5832 51C18.4488 51 22.2517 50.5526 26.3063 49.476C37.03 46.6518 43.7551 40.9054 45.6146 32.95C46.0899 30.9088 46.2298 27.4274 45.8942 25.5399C44.8596 19.6118 41.3503 14.956 35.9534 12.3415C35.2684 12.0059 34.6672 11.7123 34.6252 11.6844C34.5134 11.6145 35.3802 10.9713 36.6525 10.2023C40.4974 7.85346 46.2158 6.63708 53.5001 6.60912C56.6459 6.60912 56.6878 6.56717 54.2411 5.97995C51.2351 5.25292 49.4035 5.05718 44.9714 5.01524C42.7065 4.98728 40.6232 5.00126 40.3576 5.02922ZM31.7311 15.4873C35.3942 16.5778 38.2464 19.0246 39.8822 22.464C40.7071 24.2117 40.9308 25.2183 41.0147 27.3994C41.1266 30.3635 40.6931 32.1811 39.2531 34.6558C38.4142 36.1098 36.3449 38.221 34.9468 39.0459C31.5633 41.0453 27.8722 41.5066 24.2231 40.3742C19.5952 38.9201 16.0999 34.8795 15.3169 30.0559C15.0792 28.5599 15.2191 25.8615 15.6105 24.5193C16.9667 19.8075 20.6858 16.2982 25.4674 15.2356C27.0333 14.8861 30.1512 15.0119 31.7311 15.4873Z" fill="#F4F4F4"/>
<path d="M26.4004 20.8007C24.499 21.2621 22.5556 22.7581 21.6608 24.4638C19.8572 27.8613 20.9617 32.0977 24.1914 34.1949C26.5123 35.6909 29.728 35.6909 32.0489 34.1949C36.0336 31.6083 36.6488 26.0997 33.2933 22.7721C31.4757 20.9685 28.8472 20.2135 26.4004 20.8007Z" fill="#F4F4F4"/>
</svg>
