<svg width="56" height="56" viewBox="0 0 56 56" fill="none" xmlns="http://www.w3.org/2000/svg">
<g clip-path="url(#clip0_421_13)">
<path d="M39.8218 0.213577C31.1581 2.2118 23.7218 6.33671 17.4274 12.6739C15.5719 14.558 15.4006 14.7578 15.6433 14.9291C15.786 15.029 16.0144 15.1146 16.1571 15.1146C16.2998 15.1146 16.414 15.1717 16.414 15.2288C16.414 15.3002 15.8859 15.7997 15.2293 16.3564C13.5737 17.7837 10.1196 21.352 8.76365 23.0362C7.26498 24.8917 5.99468 26.6187 5.99468 26.8043C5.99468 26.8756 6.35151 26.9898 6.7797 27.0326C7.20789 27.0897 7.56472 27.1896 7.56472 27.261C7.56472 27.3324 7.12225 27.9604 6.57987 28.6455C4.41037 31.4002 0 37.6232 0 37.923C0 38.2798 1.72704 38.3512 2.81179 38.0229C3.19716 37.9087 3.75381 37.6518 4.05355 37.452C4.69583 37.0238 4.71011 37.1808 4.09636 37.9801C3.71099 38.4796 2.92597 39.0505 2.06959 39.4359C1.75558 39.5786 3.82518 40.9917 5.52367 41.8052C6.60842 42.3333 9.22039 43.1897 9.34885 43.0613C9.37739 43.0327 9.23466 42.5903 9.02057 42.0907C8.69229 41.3057 8.63519 40.9631 8.63519 39.807C8.63519 38.551 8.67801 38.3654 9.1062 37.4948C9.67713 36.3387 11.3043 34.7401 12.5317 34.1406C13.5737 33.6411 14.9867 33.5269 15.9144 33.8837C17.0135 34.2976 17.8413 35.5536 17.8413 36.7954C17.8413 37.452 18.0697 37.3092 18.7262 36.2387C19.4542 35.0255 19.8538 33.7124 19.8681 32.4564C19.8824 31.2575 19.6254 30.658 18.9403 30.2869C18.084 29.8159 13.8449 30.1156 12.2035 30.7579C11.9608 30.8435 11.9465 30.8293 12.0893 30.658C12.3605 30.3154 14.6584 29.1593 16.0144 28.6883C17.3418 28.2316 18.9832 27.889 20.6246 27.7463C21.5808 27.6606 24.4355 27.8747 24.935 28.0603C25.0635 28.1031 24.8208 27.7035 24.4069 27.1611C23.5933 26.1049 22.8226 24.5777 22.5371 23.4929C22.3088 22.5509 22.423 20.4528 22.7655 19.8247C23.2365 18.897 23.8503 18.2547 24.9493 17.5411C26.3766 16.599 27.9038 16.1137 29.7308 16.0138L31.1152 15.9282V16.3421C31.1152 16.9844 30.5871 18.7543 30.1161 19.6677C29.5595 20.781 28.8316 21.7373 27.861 22.6651C27.1045 23.3787 27.076 23.4215 27.4756 23.3359C27.7183 23.2788 28.4462 22.9791 29.1027 22.6651C30.059 22.2226 30.53 21.8801 31.4007 20.9951C32.514 19.8676 33.0278 19.0968 33.5131 17.798C33.9128 16.7418 34.1554 14.9291 34.0412 14.0013L33.9413 13.2306L31.5006 13.302C30.1447 13.3448 28.8886 13.4161 28.6888 13.4732C28.4034 13.5446 28.3748 13.5303 28.5461 13.4161C28.8458 13.202 31.5577 12.3314 33.299 11.8889C36.9815 10.9469 40.0644 10.6186 44.1751 10.7328C48.2001 10.8327 51.2402 11.3466 54.9941 12.5455C55.9361 12.8452 56.6212 13.0022 56.507 12.9023C55.6506 12.0745 51.3544 9.8907 48.9423 9.04859C45.06 7.70693 42.8477 7.3501 38.2375 7.33583H34.5693L34.6978 7.02182C35.7968 4.12439 38.0091 1.76934 40.9922 0.342035C42.2197 -0.257433 41.9485 -0.285979 39.8218 0.213577Z" fill="white"/>
<path d="M40.408 19.4538C38.9379 19.6964 36.9111 20.2388 36.5971 20.4671C36.3973 20.6099 36.4972 20.7098 37.3393 21.1808C38.838 22.0229 40.879 23.4502 42.4633 24.7491C43.9334 25.9623 45.5463 27.5323 45.3322 27.5323C45.2608 27.5323 44.7756 27.3753 44.2332 27.1755C41.35 26.1335 37.7818 26.0336 34.5703 26.89C33.3143 27.2326 31.2875 28.0461 31.416 28.1603C31.4445 28.2031 31.9155 28.1032 32.4579 27.9605C38.4811 26.2763 45.3465 28.7883 49.4571 34.1693C49.9138 34.7545 50.3135 35.2397 50.3563 35.2397C50.499 35.2397 50.2136 33.0132 49.8853 31.7571C48.772 27.3468 45.7176 23.7071 41.4927 21.7517C40.879 21.4663 40.5507 21.2379 40.6792 21.2093C42.3349 20.667 46.7738 20.5956 48.9861 21.0809C50.4848 21.4092 52.2832 21.9801 53.1396 22.4083C54.0102 22.865 53.739 22.4939 52.7827 21.9373C50.7988 20.7954 49.1574 20.1389 47.1021 19.6679C45.5035 19.2968 42.0637 19.1826 40.408 19.4538Z" fill="white"/>
<path d="M39.5377 31.1292C39.5377 31.1577 39.7375 31.6858 39.9659 32.3138C40.1943 32.9418 40.3941 33.527 40.3941 33.6127C40.3941 33.7269 40.1229 33.7126 39.5092 33.5556C38.9382 33.4128 37.9106 33.3272 36.6831 33.3272C34.5707 33.3129 33.2147 33.5556 31.5448 34.2121C30.56 34.5975 28.7901 35.5253 28.8615 35.6109C28.89 35.6394 29.4895 35.4682 30.1889 35.2398C34.0426 34.0123 37.6679 34.3977 41.0792 36.4102C41.5217 36.6671 42.4922 37.4664 43.2202 38.1943L44.5618 39.4932L44.4619 38.6225C44.1907 36.3245 43.2487 34.3549 41.6073 32.742C40.6796 31.8143 39.5377 30.9293 39.5377 31.1292Z" fill="white"/>
<path d="M32.0578 39.7359C30.6733 40.0927 29.3031 40.9063 28.0899 42.1052C27.4761 42.7047 26.9766 43.2613 26.9766 43.3469C26.9766 43.4469 27.2763 43.3327 27.6617 43.1043C29.4458 41.991 31.8009 41.3773 34.2415 41.3773C36.5252 41.3773 38.4093 41.834 40.3361 42.8617C40.8357 43.1186 41.2496 43.2899 41.2496 43.2328C41.2496 42.9616 39.7652 41.5057 38.9374 40.9776C37.4387 39.9928 36.2826 39.636 34.4699 39.5789C33.3994 39.5503 32.643 39.5931 32.0578 39.7359Z" fill="white"/>
<path d="M22.5542 40.849C22.5542 41.2201 21.0984 43.2326 20.3134 43.9319C19.3571 44.7883 18.0154 45.5162 16.5596 45.9587C15.7032 46.2299 15.1465 46.287 13.7478 46.3013C12.7772 46.3013 11.9922 46.3441 11.9922 46.4012C11.9922 46.6153 13.762 47.3575 14.4614 47.4431C15.1465 47.5145 16.0886 47.3575 16.9164 47.0006C17.1876 46.8865 17.1876 46.9007 16.9735 47.229C16.6452 47.7286 15.9173 48.1139 15.275 48.1425C14.9753 48.1425 14.7612 48.2139 14.804 48.2852C14.961 48.5279 16.9307 49.3557 18.1439 49.684C19.143 49.9552 19.6711 50.0123 21.4124 49.998C23.5676 49.9837 24.7523 49.7696 26.2652 49.1131L26.9075 48.8419L26.1082 48.6135C24.6381 48.1853 23.4963 46.9436 22.9396 45.1594C22.6827 44.3459 22.6256 43.832 22.6399 42.4047C22.6399 41.4484 22.6256 40.6634 22.5971 40.6634C22.5685 40.6634 22.5542 40.749 22.5542 40.849Z" fill="white"/>
</g>
<defs>
<clipPath id="clip0_421_13">
<rect width="56" height="56" fill="white"/>
</clipPath>
</defs>
</svg>
