<svg width="56" height="56" viewBox="0 0 56 56" fill="none" xmlns="http://www.w3.org/2000/svg">
<g clip-path="url(#clip0_421_39)">
<path d="M25.9202 1.06108C22.6318 1.38719 19.5745 2.4063 17.1015 4.0097L16.1367 4.63476L16.6123 5.59951L17.1015 6.55068L17.5363 6.26533C18.3652 5.7218 20.2811 4.79781 21.4361 4.39017C23.6374 3.61565 24.5342 3.47976 27.279 3.47976C29.2628 3.47976 30.0238 3.53412 30.8798 3.73794C33.0947 4.25429 35.228 5.1511 37.0624 6.31968C37.5516 6.63221 38.0136 6.93115 38.0951 6.9855C38.2446 7.06703 39.2365 5.59951 39.2365 5.30057C39.2365 5.13752 36.9809 3.65641 35.9482 3.12647C32.8909 1.57743 28.9096 0.762141 25.9202 1.06108Z" fill="white"/>
<path d="M24.9215 5.46413C23.8616 5.6136 22.3534 6.04842 21.144 6.55118C19.8531 7.08112 18.0188 8.18176 18.1003 8.38558C18.1275 8.46711 19.2009 10.5189 20.4782 12.9376L22.7882 17.3402L27.4489 17.3673C30.0171 17.3945 32.1776 17.3537 32.2727 17.2994C32.4357 17.1907 37.2052 8.99704 37.2052 8.8204C37.2052 8.64375 34.9903 7.24418 34.0391 6.80936C31.24 5.54566 27.843 5.0429 24.9215 5.46413Z" fill="white"/>
<path d="M13.0034 7.31164C12.2153 8.12692 11.2913 9.14603 10.9516 9.59444C8.36985 13.0051 6.49469 17.1494 5.61147 21.4433C5.32611 22.8157 5 25.411 5 26.335V27.0552H5.81529H6.63057V26.4029C6.63057 24.5685 7.22845 21.4161 8.05733 18.9159C9.32102 15.1384 11.1826 12.0675 13.8459 9.33627C14.7291 8.43945 15.4629 7.66493 15.4629 7.62416C15.4629 7.50187 14.5796 5.85771 14.4981 5.85771C14.4573 5.85771 13.7915 6.50994 13.0034 7.31164Z" fill="white"/>
<path d="M40.2607 7.50187L39.7852 8.33075L40.9809 9.59444C42.6387 11.3473 43.8344 13.0594 45.0166 15.4102C46.62 18.617 47.5168 21.7015 47.8293 25.248L47.9924 27.0552H48.7805H49.5686V26.3214C49.5686 25.9138 49.4735 24.8539 49.3648 23.9707C48.5087 17.5027 45.8455 11.687 41.837 7.5834C41.3478 7.08064 40.8994 6.673 40.845 6.673C40.7907 6.673 40.5325 7.03988 40.2607 7.50187Z" fill="white"/>
<path d="M15.0264 10.8717C11.6565 14.3775 9.42807 19.2012 8.73507 24.5142C8.62637 25.3974 8.53125 26.335 8.53125 26.5932V27.0552L12.0234 27.028L15.5155 26.9872L18.1381 22.4488C19.5784 19.9622 20.7606 17.856 20.7606 17.7881C20.7606 17.5707 16.5211 9.5265 16.4124 9.5265C16.358 9.5265 15.733 10.1244 15.0264 10.8717Z" fill="white"/>
<path d="M36.4289 14.1193C35.138 16.3613 34.0781 18.2501 34.0781 18.3044C34.0781 18.3724 35.2059 20.3562 36.5648 22.707L39.0514 26.9872L42.5435 27.028L46.0357 27.0552V26.5932C46.0357 25.7235 45.6416 23.0603 45.3019 21.6879C44.31 17.6114 42.3397 13.8339 39.8395 11.1843L38.766 10.0564L36.4289 14.1193Z" fill="white"/>
<path d="M21.7339 20.0851C19.0299 24.7458 17.2227 27.9118 17.2227 28.007C17.2227 28.0613 18.3505 30.0724 19.7229 32.4503L22.2231 36.7713L27.1556 36.7985C29.8732 36.8257 32.1696 36.7849 32.2511 36.7305C32.4142 36.6218 37.3331 28.1836 37.3331 28.007C37.3331 27.8167 32.4278 19.3921 32.2511 19.2834C32.1696 19.229 29.8868 19.1747 27.1827 19.1747H22.2638L21.7339 20.0851Z" fill="white"/>
<path d="M5 29.6914C5 30.099 5.09512 31.1589 5.20382 32.0421C6.04629 38.4965 8.62803 44.1491 12.6637 48.3614L13.7372 49.4893L14.2671 48.5789L14.7834 47.682L13.479 46.3096C9.90531 42.5457 7.48663 37.1784 6.76646 31.4035C6.69852 30.7784 6.63057 29.9631 6.63057 29.6098V28.9576H5.81529H5V29.6914Z" fill="white"/>
<path d="M8.53125 29.4601C8.53125 30.1531 8.87095 32.5853 9.14272 33.849C9.958 37.8032 12.2136 42.2057 14.7546 44.8554L15.8009 45.9561L18.1516 41.8932C19.4289 39.6512 20.4888 37.7624 20.4888 37.7081C20.4888 37.6401 19.361 35.6563 18.0022 33.3055L15.5155 29.0253L12.0234 28.9845L8.53125 28.9573V29.4601Z" fill="white"/>
<path d="M39.0089 29.1212C38.6964 29.5153 33.8047 38.0758 33.8047 38.2252C33.8047 38.4426 38.017 46.4868 38.1393 46.4868C38.2616 46.4868 40.1639 44.5301 40.8297 43.7013C42.8136 41.2418 44.4442 37.8312 45.3002 34.3254C45.6264 32.953 46.034 30.2898 46.034 29.4201V28.9581H42.5826C39.9873 28.9581 39.1041 28.9989 39.0089 29.1212Z" fill="white"/>
<path d="M47.8265 30.7514C47.514 34.2571 46.6036 37.4503 45.0002 40.63C43.7093 43.1845 42.5407 44.8151 40.584 46.7854L39.0078 48.3752L39.4834 49.2312C39.7416 49.7068 39.9726 50.1145 39.9997 50.1416C40.0949 50.2504 42.269 48.0355 43.2473 46.8261C46.5356 42.7905 48.7777 37.2465 49.4299 31.6075C49.4978 30.928 49.5658 30.0584 49.5658 29.6643V28.9578H48.7777H47.9896L47.8265 30.7514Z" fill="white"/>
<path d="M21.7426 39.5162C18.4135 45.2504 17.3672 47.0848 17.3672 47.1935C17.3672 47.4109 19.7179 48.8512 20.9409 49.3676C25.6559 51.4058 31.0504 51.0661 35.4122 48.4572C35.8334 48.199 36.2683 47.9408 36.3634 47.8729C36.4993 47.7913 35.9557 46.6499 34.2029 43.2801C32.912 40.8206 31.7978 38.7688 31.7162 38.7145C31.6347 38.6601 29.4742 38.6058 26.9196 38.6058H22.2725L21.7426 39.5162Z" fill="white"/>
<path d="M15.8046 49.7613C15.5328 50.2233 15.3426 50.6717 15.3698 50.7668C15.4785 51.0386 17.5031 52.3159 18.9299 53.0089C22.1231 54.5715 25.5337 55.2373 28.7812 54.9248C32.0832 54.5987 35.3443 53.4573 37.8581 51.7588L38.4288 51.3647L37.9396 50.4271L37.4505 49.476L36.8798 49.8292C35.1677 50.9027 32.4908 51.949 30.4798 52.343C28.9987 52.642 25.0445 52.6012 23.6857 52.2751C21.4029 51.7452 19.0793 50.7668 17.3672 49.6118C16.9596 49.3401 16.5519 49.0683 16.4568 49.0275C16.3617 48.9596 16.1171 49.2314 15.8046 49.7613Z" fill="white"/>
</g>
<defs>
<clipPath id="clip0_421_39">
<rect width="45" height="54" fill="white" transform="translate(5 1)"/>
</clipPath>
</defs>
</svg>
